<?xml version="1.0" encoding="UTF-8"?>
<svg id="Layer_1" data-name="Layer 1" xmlns="http://www.w3.org/2000/svg" version="1.1" viewBox="0 0 70 28">
  <defs>
    <style>
      .cls-1 {
        fill: #0095ff;
      }

      .cls-1, .cls-2 {
        stroke-width: 0px;
      }

      .cls-2 {
        fill: #0000c9;
      }
    </style>
  </defs>
  <path class="cls-1" d="M4.823,5.083c9.853.709,19.917,5.582,18.966,9.221l.884-3.249c.283-1.023.422-1.552.422-1.979C25.095,5.371,15.381.848,6.129.282l-1.306,4.801h0ZM1.678,10.988c.812-3.038,5.685-3.993,12.361-3.145l-1.306,4.801c-4.616-.559-8.239-.272-10.327.71-.647-.811-.922-1.617-.724-2.371"/>
  <path class="cls-2" d="M23.806,14.233l-.017.062c-.812,3.038-5.685,3.993-12.361,3.145l1.306-4.801c4.618.558,8.242.274,10.329-.707.628.786.906,1.567.744,2.3h0ZM19.343,25.005C10.091,24.44.376,19.917.376,16.211c0-.426.139-.956.422-1.979l.884-3.249c-.956,3.639,9.108,8.512,18.962,9.216l-1.301,4.805ZM56.584,19.069c.7-.013,1.395-.274,1.961-.713l.453,1.135c-.727.552-1.763.906-2.818.906-2.378,0-3.805-1.328-3.805-3.513,0-2.279,1.956-4.451,4.159-4.451,2.154,0,3.208,1.31,3.208,3.029,0,.372-.063.776-.162,1.149h-4.9c-.004.09-.009.179-.009.274,0,1.409.664,2.203,1.911,2.185h0ZM56.57,13.662c-.758,0-1.409.722-1.714,1.817h2.795c.013-.108.018-.211.018-.31,0-1.036-.372-1.508-1.099-1.508h0ZM32.476,16.027h-2.234l-1.135,4.177h-2.575l3.078-11.334h4.079c2.109,0,3.5,1.297,3.5,3.078,0,2.427-2.154,4.079-4.711,4.079ZM34.585,12.043c0-1.05-.66-1.844-1.831-1.844h-.929l-1.22,4.5h.884c1.772,0,3.091-.974,3.096-2.656ZM40.543,12.635h5.079l-2.042,7.56h-2.495l1.705-6.313h-2.593l-3.805,13.878h-2.495l4.406-16.014c1.086-3.935,2.818-5.618,5.456-5.618,1.799,0,2.979.906,2.979,2.284,0,.893-.727,1.62-1.633,1.62-.731,0-1.297-.516-1.297-1.18,0-.57.292-.781.31-1.135,0-.323-.26-.516-.682-.516-.875,0-1.526.695-1.88,1.813-.337,1.086-.583,2.024-.727,2.575l-.287,1.054v-.009ZM48.193,18.957h3.598l-.323,1.247h-6.995l4.963-6.313h-3.199l.328-1.247h6.605l-4.976,6.313h0ZM67.68,13.842c0,.682-.489,1.427-1.297,1.427-1.117,0-.875-1.216-1.521-1.216-.601,0-1.508,1.36-1.88,2.75l-.924,3.401h-2.495l2.042-7.56h2.495l-.435,1.647c.745-1.198,1.696-1.777,2.589-1.777.794,0,1.422.534,1.427,1.328Z"/>
</svg>